<?xml version="1.0" encoding="utf-8" ?>
<svg baseProfile="full" height="1024px" version="1.1" viewBox="0 0 1024 1024" width="1024px" xmlns="http://www.w3.org/2000/svg" xmlns:ev="http://www.w3.org/2001/xml-events" xmlns:xlink="http://www.w3.org/1999/xlink"><defs /><g id="target_esp"><g transform="rotate(0, 512, 512)"><circle cx="512" cy="422" fill="#2affd0" r="16" stroke="#00b3b3" stroke-width="3" /><polygon fill="#2affd0" points="512,385 482,415 492,422 512,402 532,422 542,415" stroke="#00b3b3" stroke-width="2" /><polyline fill="none" points="470,400 512,358 554,400" stroke="#2affd0" stroke-linecap="round" stroke-linejoin="round" stroke-width="8" /><polyline fill="none" points="270,512 512,170 754,512" stroke="#a3ffe8" stroke-linecap="round" stroke-linejoin="round" stroke-width="18" /><polyline fill="none" points="220,512 512,220 804,512" stroke="#2affd0" stroke-linecap="round" stroke-linejoin="round" stroke-width="24" /><polyline fill="none" points="220,512 512,220 804,512" stroke="#00b3b3" stroke-linecap="round" stroke-linejoin="round" stroke-width="4" /></g><g transform="rotate(90, 512, 512)"><circle cx="512" cy="422" fill="#2affd0" r="16" stroke="#00b3b3" stroke-width="3" /><polygon fill="#2affd0" points="512,385 482,415 492,422 512,402 532,422 542,415" stroke="#00b3b3" stroke-width="2" /><polyline fill="none" points="470,400 512,358 554,400" stroke="#2affd0" stroke-linecap="round" stroke-linejoin="round" stroke-width="8" /><polyline fill="none" points="270,512 512,170 754,512" stroke="#a3ffe8" stroke-linecap="round" stroke-linejoin="round" stroke-width="18" /><polyline fill="none" points="220,512 512,220 804,512" stroke="#2affd0" stroke-linecap="round" stroke-linejoin="round" stroke-width="24" /><polyline fill="none" points="220,512 512,220 804,512" stroke="#00b3b3" stroke-linecap="round" stroke-linejoin="round" stroke-width="4" /></g><g transform="rotate(180, 512, 512)"><circle cx="512" cy="422" fill="#2affd0" r="16" stroke="#00b3b3" stroke-width="3" /><polygon fill="#2affd0" points="512,385 482,415 492,422 512,402 532,422 542,415" stroke="#00b3b3" stroke-width="2" /><polyline fill="none" points="470,400 512,358 554,400" stroke="#2affd0" stroke-linecap="round" stroke-linejoin="round" stroke-width="8" /><polyline fill="none" points="270,512 512,170 754,512" stroke="#a3ffe8" stroke-linecap="round" stroke-linejoin="round" stroke-width="18" /><polyline fill="none" points="220,512 512,220 804,512" stroke="#2affd0" stroke-linecap="round" stroke-linejoin="round" stroke-width="24" /><polyline fill="none" points="220,512 512,220 804,512" stroke="#00b3b3" stroke-linecap="round" stroke-linejoin="round" stroke-width="4" /></g><g transform="rotate(270, 512, 512)"><circle cx="512" cy="422" fill="#2affd0" r="16" stroke="#00b3b3" stroke-width="3" /><polygon fill="#2affd0" points="512,385 482,415 492,422 512,402 532,422 542,415" stroke="#00b3b3" stroke-width="2" /><polyline fill="none" points="470,400 512,358 554,400" stroke="#2affd0" stroke-linecap="round" stroke-linejoin="round" stroke-width="8" /><polyline fill="none" points="270,512 512,170 754,512" stroke="#a3ffe8" stroke-linecap="round" stroke-linejoin="round" stroke-width="18" /><polyline fill="none" points="220,512 512,220 804,512" stroke="#2affd0" stroke-linecap="round" stroke-linejoin="round" stroke-width="24" /><polyline fill="none" points="220,512 512,220 804,512" stroke="#00b3b3" stroke-linecap="round" stroke-linejoin="round" stroke-width="4" /></g><circle cx="512" cy="512" fill="none" r="90" stroke="#2affd0" stroke-width="6" /></g></svg>
